<?xml version="1.0" encoding="UTF-8"?>
<svg version="1.1" xmlns="http://www.w3.org/2000/svg" width="30" height="30" fill="currentColor" stroke="currentColor">
  <path 
    d="M0 0 C3.45201639 1.47721422 5.64961936 3.43794001 8.25 6.125 C8.95640625 6.84945313 9.6628125 7.57390625 10.390625 8.3203125 C11.18726563 9.15175781 11.18726563 9.15175781 12 10 C15.45007911 8.53023536 17.56493084 6.59081481 20.125 3.875 C21.37827763 2.54605277 22.66285567 1.24452827 24 0 C24.66 0 25.32 0 26 0 C24.41332422 3.90285767 21.86649519 6.33520982 18.875 9.25 C17.96492188 10.14203125 17.05484375 11.0340625 16.1171875 11.953125 C15.06917969 12.96632813 15.06917969 12.96632813 14 14 C10.14406926 12.41438362 7.66783709 9.93490046 4.75 7 C3.85796875 6.113125 2.9659375 5.22625 2.046875 4.3125 C0 2 0 2 0 0 Z" 
    fill="#000000" 
    transform="translate(2,8)"
  />
</svg>
